<svg xmlns="http://www.w3.org/2000/svg" width="1124.31201171875" height="513" enable-background="new 0 0 1124.312 513" version="1.1" xml:space="preserve"><rect id="backgroundrect" width="100%" height="100%" x="0" y="0" fill="none" stroke="none"/>
		
		
		
		
		
		
		
		
		
		
		
		
		
		
		
		
		
		
		
		
		
		
		
		
		
		
		
		
		
		
		
		
		
		
		
		
		
		
		
		
		
		
		
		
		
		
		
		
		
		
		
		
		
		
		
		
		
		
		
		
		
		
		
		
		
		
		
		
		
<g class="currentLayer"><title>Layer 1</title><polygon points="992.12 284.16 989.65 283 989.65 284.88" id="svg_1" class="selected" fill-opacity="1" fill="#f2f2f2"/><polygon points="1039.6 178.97 1038.5 178.25 1036.3 179.44 1038.5 181.09" id="svg_2" class="selected" fill-opacity="1" fill="#f2f2f2"/><polygon points="1042.4 194 1044 193.06 1043.7 191.19 1041.2 191.88" id="svg_3" class="selected" fill-opacity="1" fill="#f2f2f2"/><polygon points="1034.4 190.94 1036.9 191.41 1036.9 190 1034.1 189.31" id="svg_4" class="selected" fill-opacity="1" fill="#f2f2f2"/><polygon points="567.62 188.12 567.07 189.53 568.46 190 569.54 188.84" id="svg_5" class="selected" fill-opacity="1" fill="#f2f2f2"/><polygon points="557.25 194 554.81 195.62 556.17 196.56" id="svg_6" class="selected" fill-opacity="1" fill="#f2f2f2"/><polygon points="478.38 298.97 478.91 300.12 480.3 299.66 480.02 298.25" id="svg_7" class="selected" fill-opacity="1" fill="#f2f2f2"/><polygon points="485.73 299.19 484.09 299.19 484.65 300.59 486.01 300.59" id="svg_8" class="selected" fill-opacity="1" fill="#f2f2f2"/><path d="m565.46 25.156s3.551-1.406 0.278-3.75c0 0-2.995 0.219-2.995-1.875 0 0-3.026 0.719-5.219 0l-1.513 3.5 5.867 3.094s2.47-2.375 3.58-0.969z" id="svg_9" class="selected" fill-opacity="1" fill="#f2f2f2"/><polygon points="538.69 36.188 541.68 36.438 542.52 34.781 538.69 33.625" id="svg_10" class="selected" fill-opacity="1" fill="#f2f2f2"/><polygon points="535.42 29.625 537.05 28.906 537.05 27.281 535.17 28.219" id="svg_11" class="selected" fill-opacity="1" fill="#f2f2f2"/><polygon points="549.06 19.281 549.34 17.188 544.43 16.469 542.8 18.812 544.71 21.406" id="svg_12" class="selected" fill-opacity="1" fill="#f2f2f2"/><path d="m526.12 20.688l3.86 4.938s4.508-3.875 8.43-4.688l2.192-5.406s-6.269-4.688-9.264-4.469l-5.744 3.062 0.52 6.563z" id="svg_13" class="selected" fill-opacity="1" fill="#f2f2f2"/><polygon points="688.82 106.88 692.37 110.62 693.73 109.47 691.02 105.94" id="svg_14" class="selected" fill-opacity="1" fill="#f2f2f2"/><polygon points="935.05 25.406 936.97 18.812 927.67 13.875 926.59 21.406" id="svg_15" class="selected" fill-opacity="1" fill="#f2f2f2"/><path d="m743.42 142.09l-2.162 1.406v2.125l3.273-0.219h2.439c0 0.01-1.08-3.06-3.55-3.31z" id="svg_16" class="selected" fill-opacity="1" fill="#f2f2f2"/><polygon points="833.49 178.97 832.69 177.31 828.3 176.84 830.25 178.97 830.77 181.09 833.49 181.31 837.32 182.97" id="svg_17" class="selected" fill-opacity="1" fill="#f2f2f2"/><polygon points="618.97 393.38 614.31 389.12 614.87 392.19 617.86 394.28" id="svg_18" class="selected" fill-opacity="1" fill="#f2f2f2"/><polygon points="477.27 299.91 474.83 300.84 475.63 302.72 477.27 302.47" id="svg_19" class="selected" fill-opacity="1" fill="#f2f2f2"/><polygon points="560 345.69 559.44 347.31 563.55 348.28 564.63 346.84" id="svg_20" class="selected" fill-opacity="1" fill="#f2f2f2"/><polygon points="500.21 340.53 501.29 338.62 499.38 338.41 498.02 339.56" id="svg_21" class="selected" fill-opacity="1" fill="#f2f2f2"/><polygon points="477.27 348.03 478.38 345.94 476.19 346.16" id="svg_22" class="selected" fill-opacity="1" fill="#f2f2f2"/><polygon points="480.3 358.12 486.01 356.72 485.45 355.53 480.54 356.03" id="svg_23" class="selected" fill-opacity="1" fill="#f2f2f2"/><polygon points="466.34 358.84 467.73 360.25 468.56 359.31 469.09 357.91 467.17 357.66" id="svg_24" class="selected" fill-opacity="1" fill="#f2f2f2"/><polygon points="472.36 355.06 475.11 351.81 473.19 351.56 468.56 353.69 468.56 355.06" id="svg_25" class="selected" fill-opacity="1" fill="#f2f2f2"/><polygon points="980.11 34.312 979 38.375 990.48 44 990.76 37.906 987.46 35.688" id="svg_26" class="selected" fill-opacity="1" fill="#f2f2f2"/><polygon points="249.01 56.625 253.4 60 262.88 62.625 265.41 59.781 262.66 55.719 261.86 40.656 255.59 38.844" id="svg_27" class="selected" fill-opacity="1" fill="#f2f2f2"/><path d="m266.18 37.375l9.017-16 25.62-12.375-6.546-9-31.651 22.281-6.269 12.594c0.01 1.156 9.83 2.5 9.83 2.5z" id="svg_28" class="selected" fill-opacity="1" fill="#f2f2f2"/><polygon points="904.11 15.469 909.95 17.125 914.3 24.781 922.49 21.469 919.4 4.969 901.61 9.531" id="svg_29" class="selected" fill-opacity="1" fill="#f2f2f2"/><polygon points="860.26 18.938 865.73 24.5 866.62 21.031 876.17 21.219 879.72 25.375 892.1 21.156 895.93 14.406 887.56 12.344 882.65 3.031 879.53 5.719 882.65 13.844 868.26 10.812" id="svg_30" class="selected" fill-opacity="1" fill="#f2f2f2"/><polygon points="925.11 3.688 938.14 8.281 941.42 25.219 974.36 27.344 971.46 14.719 955.43 16.969 945.06 5.562 932.68 0.906" id="svg_31" class="selected" fill-opacity="1" fill="#f2f2f2"/><polygon points="938.88 32.281 930.85 35.594 929.06 40.969 935.76 44.75 943.61 40.844 945.8 34.094" id="svg_32" class="selected" fill-opacity="1" fill="#f2f2f2"/><polygon points="909.02 48.938 920.7 53.156 925.57 42.938 922.33 37.25 912.48 33.469 913.93 45.625 908.47 44.562" id="svg_33" class="selected" fill-opacity="1" fill="#f2f2f2"/><polygon points="842.79 56.438 850.07 53.438 857.18 43.406 859.52 30.938 842.6 28.375 837.51 36.781 834.6 49.688" id="svg_34" class="selected" fill-opacity="1" fill="#f2f2f2"/><polygon points="895.74 42.188 873.54 47.594 862.61 43.094 856.81 54.031 865.14 55.438 877.9 63.781 881.91 75.625 904.85 73.375 909.58 64.25 896.61 60.281" id="svg_35" class="selected" fill-opacity="1" fill="#f2f2f2"/><path d="m998.39 52.688l0.154-4.938-16.181 3-0.186-4.219-2.347-1.5-4.91 7.812 0.371-15.156-12.043 0.438-2.903-3.594-10.19 6.844 0.741 12.062 9.819 12.281c2.563 0 21.09 0.625 21.09 0.625l16.026 4.938 1.112 8.562c1.451-0.156 16.922 7.656 16.922 7.656l-8.029 6.156-9.819-6.312-12.908 9.438c2.038 1.656 5.095 6.906 5.095 6.906l12.537-2.844 7.102 7.781 31.126-18.594-13.833-9.906-4.91-15.594-9.2 0.464-14.71-12.312z" id="svg_36" class="selected" fill-opacity="1" fill="#f2f2f2"/><polygon points="977.27 106.56 975.48 103.25 967.26 100.53 962.91 96.062 962.72 100.25 959.08 106.41 963.06 107.44 964.54 110.75 967.63 109.38 967.63 107 972.54 107.91" id="svg_37" class="selected" fill-opacity="1" fill="#f2f2f2"/><polygon points="1052.1 178.88 1050.1 185.44 1067.9 189.53 1068.8 186.53 1058.5 179.09 1058.3 174.38" id="svg_38" class="selected" fill-opacity="1" fill="#f2f2f2"/><polygon points="1010.4 280.28 1003.7 281.31 1001.5 284.19 1010.8 285.06" id="svg_39" class="selected" fill-opacity="1" fill="#f2f2f2"/><polygon points="992.67 275.75 979.27 272.03 972.91 269.62 970.35 272.16 977.39 274.31 987.83 278.94 993.29 279.38" id="svg_40" class="selected" fill-opacity="1" fill="#f2f2f2"/><polygon points="1018.1 508.5 1017.7 502.38 1009.8 507.41 1018.1 513 1027 511.19" id="svg_41" class="selected" fill-opacity="1" fill="#f2f2f2"/><path d="m1113 340.44l-37.302-7.938-4.2-9.156-30.941-16.656-21.646-4.219-31.126 7.969-5.095-2.125s-2.007 3-4.385 1.375l-10.159-7.969-2.563-10.656s-7.442 0.719-8.739 0.781l-3.088-7.5s2.532-7.219 3.644-8.25c0 0-8.399-1.344-9.264-1.375-0.926-0.031-3.829 6.469-3.829 6.469l-17.292-2.875-1.112-22.781 33.319-7.656s6.917-2.25 9.634 1.031c0 0 4.168 4.344 3.088 7.219l5.836 7.5 1.452-2.25s1.451-3.156-0.186-5.25c0 0-1.111-3.438-5.095-7.344l18.033-17.094-1.667-9.906 2.192-2.406 2.934 2.25 16.737-14.875-0.741-2.969 9.109-7.812 7.442 4.938 11.116-2.531 1.297-3.031-9.294-2.25 0.154-10.188-12.846-1.656 39.989-12.906-6.207-9.906-10.005 3.594-13.278-29.375-9.449 3-20.411-20.875-12.352 4.656 0.185 21.188 4.169 8.219-8.183 5.094 1.822 19.531-8.584-4.344-6.145-13.375-37.858-21.625 5.435-21.438 14.205-14.406-8.152-9.094 19.423 2.062 12.568-6.156-4.02-5.836 3.674-2.094-11.302-6.312-3.088 11.531-21.122-15.75-4.354-13.938-3.674-1.188-3.057 15.438 4.725 1.344-4.725 12.438-7.84-3.719-10.375 3.281-20.905-0.906s-0.494 3.344-1.297 6.469c0 0-18.713-4.062-19.454-3.594-0.741 0.438-24.024-12.312-24.024-12.312l-37.518-1.062-2.717 7.688s-72.412-19.969-73.338-17.438l-28.224 17.281 13.834 10.625s-11.611-3.156-11.271 3.438l-2.717 6.031 13.648 6.75-14.729 16.938s13.463 18.469 15.069 18.906l3.829-4.781 7.658 6.312 0.741 7.781 9.634-7.062 14.39-17.531-1.482 9s6.392-1.344 5.836-3.312c0 0 43.664 9.156 45.856 8.688l13.833 15.469s7.473 15.344 9.264 19.5l10.653 3.219 5.867 9.562-3.952 0.406-2.563 19.375 4.045 15.156 2.532 3.594 10.9 10.188 19.299 24.312 5.28 6.438s5.466 3 6.547 2.594c1.111-0.469-4.725-4.656-4.725-4.656s-13.463-19.375-12.197-20.281 32.207 27.031 30.941 29.562c0 0-2.934 5.406-1.112 6.75 0 0 33.812 11.156 36.036 10.344 0 0 43.138 21.906 44.435 22.812l3.798-1.344s7.287 2.844 5.28 4.812l-10.561 20.969 12.043 31.656 21.09 15.938-1.8 39.42-6.917 20.844 2.934 12.906-3.304 34.062s7.998 13.812 11.642 8.844l10.561-27.156 9.294-18.719 22.017-11.594 17.107-15.719 1.637-6.469 36.561-34.375 14.39-30.25-11.3-15.93zm-159.11-156.25l4.107-0.438 7.905 5.844 5.991 3.156 6.299 2.688 2.996 4.75-5.19-1.81-4.354 3.375-3.273-0.469-1.359-5.844-4.107 1.781-2.995 2.969 1.35 3.8-1.081 2.688-3.551-4.719-0.309-5.844s-0.803-2.031 4.94-3.375l-1.636-1.812-5.744 1.375-9.295-2.062 9.29-6.07zm-101.56-88.565l-9.819 2.562 1.359-6.812-2.996-0.938 9.017-6.344 3.273 1.875v3.781l4.91 0.688-5.74 5.188zm33.04 22.535l-16.922 6.344-8.183-0.938 7.103-6.594-3.829-4.906 13.648 3.031 7.658-1.406 0.52 4.48zm36.03 47.9l-3.798-3.781 2.162-2.562 5.188 1.188-0.833 11-1.328-0.219-1.39-5.63z" id="svg_42" class="selected" fill-opacity="1" fill="#f2f2f2"/><polygon points="489.56 332.5 492.83 330.84 491.2 328 489.37 329.91" id="svg_43" class="selected" fill-opacity="1" fill="#f2f2f2"/><path d="m463.71 303.84s-1.112 2.406-2.378 3c0 0-1.605 3 0.927 1.656l2.192-2.719c0.01 0 1.61-1.94-0.74-1.94z" id="svg_44" class="selected" fill-opacity="1" fill="#f2f2f2"/><path d="m470.82 267.06s1.637-1.5 2.378-2.531c0.71-1.031 0.031-2.062 0.031-2.062l-2.038-0.188-2.377 2.25-0.124 2.125 2.13 0.4z" id="svg_45" class="selected" fill-opacity="1" fill="#f2f2f2"/><polygon points="503.36 235.16 501.11 238.56 502.87 238.66 502.22 242.34 506.23 238.28" id="svg_46" class="selected" fill-opacity="1" fill="#f2f2f2"/><polygon points="510.68 238.47 513.03 236.91 511.95 235.88 509.38 237.75" id="svg_47" class="selected" fill-opacity="1" fill="#f2f2f2"/><polygon points="524.48 222.22 515.78 228.22 508.98 230.47 507.32 233.16 509.6 233.06 509.29 234.78 514.51 232.56 513.06 235.06 514.02 236.25 525.22 229.91 530.69 229.44 534.7 218.75 539.83 212.47 536.87 212.16 535.88 209.47" id="svg_48" class="selected" fill-opacity="1" fill="#f2f2f2"/><polygon points="531.77 204.22 532.7 206.94 538.5 204.38 539.06 206.31 542.15 206.47 545.79 202.72 549.06 202.25 550.52 198.97 546.5 199.56 537.95 195.78 537.27 200.38" id="svg_49" class="selected" fill-opacity="1" fill="#f2f2f2"/><polygon points="541.44 191.75 541.25 186.22 545.05 178.88 543.97 172.12 543.78 164 542.52 159.22 540.51 159.66 539.8 177.22 537.05 189.81" id="svg_50" class="selected" fill-opacity="1" fill="#f2f2f2"/><polygon points="626.23 459.25 617.86 468.72 623.3 473.66 629.47 471.06 630.71 464.38 642.1 455.94 638.61 450.25" id="svg_51" class="selected" fill-opacity="1" fill="#f2f2f2"/><polygon points="644.6 433.91 638.43 436.44 642.04 442.31 639.69 448 643.86 454.31 654.42 443.81" id="svg_52" class="selected" fill-opacity="1" fill="#f2f2f2"/><polygon points="555.08 453.25 549.43 451.16 547.24 454.59 549.8 461.97 553.97 460.31" id="svg_53" class="selected" fill-opacity="1" fill="#f2f2f2"/><polygon points="570.9 398.19 543.78 369.25 544.52 366.53 537.85 361.59 535.42 373.91 531.22 377.34 521.77 372.38 522.69 368.34 509.38 361.59 497.93 370.88 487.37 370.75 461.18 388 448.24 392.06 447.16 405.84 452.78 422.5 452.78 430.47 466.99 431.06 507.41 422.06 528.68 432.09 542.33 445.03 549.43 443.19 551.07 445.91 561.08 440.06 573.27 420.41" id="svg_54" class="selected" fill-opacity="1" fill="#f2f2f2"/><polygon points="548.88 343.44 527.97 337.31 515.4 337.44 510.87 334.88 504.84 335.03 505.15 339.09 543.23 354.84 552.34 355.12 563.05 359.5 563.64 357.56" id="svg_55" class="selected" fill-opacity="1" fill="#f2f2f2"/><polygon points="478.1 297.97 478.81 294.69 472.08 290.19 474.64 281.47 468.1 281.91 466.37 291.03" id="svg_56" class="selected" fill-opacity="1" fill="#f2f2f2"/><polygon points="475.39 311.34 479.18 314.94 488.29 313.88 485.36 305.94" id="svg_57" class="selected" fill-opacity="1" fill="#f2f2f2"/><path d="m438.42 278.31l-0.556-1.625-3.088 0.125-4.539 3.031c1.081 3.125 3.088 1.469 3.088 1.469l2.532-0.594 2.57-2.4z" id="svg_58" class="selected" fill-opacity="1" fill="#f2f2f2"/><path d="m463.16 336.53s1.081 8.719 2.192 9l2.748-1.656-0.216-7.344 4.015 6.781 2.563-0.469-2.192-6.312 2.192 0.156s4.539-0.719 0.185-2.406c0 0-8.029-0.625-2.934-2.531l8.523-1.281-0.68-2.188s-7.287 1.625-10.561 0l-5.83 8.25z" id="svg_59" class="selected" fill-opacity="1" fill="#f2f2f2"/><polygon points="445.52 350.19 445.34 347.94 424.96 346 425.67 349.16 429.68 351.53 441.14 353.78" id="svg_60" class="selected" fill-opacity="1" fill="#f2f2f2"/><path d="m437.87 340.88h12.383l9.634-9.875s4.755-10.062 2.378-12.188l-2.193-5.844s-2.007-1.938-4.724 1.219l-14.915 9.156-6.762 2.844-3.273 10.344 7.46 4.35z" id="svg_61" class="selected" fill-opacity="1" fill="#f2f2f2"/><path d="m421.32 339.69l-5.836-4.062c-8.554-11.25-12.352-9.75-12.352-9.75l-8.399-7.344-9.634-1.656 4.725 6.312 10.561 11.25 12.63 8.094 1.39 3 7.627-0.875c2.19-2.88-0.71-4.97-0.71-4.97z" id="svg_62" class="selected" fill-opacity="1" fill="#f2f2f2"/><path d="m338.5 306.84l-1.976 1.344s1.266 2.562-1.112 3.156c0 0-1.451 1.938 3.273 4.031l2.563-1.656v-2.812l0.896-1.844s-2.53-3.28-3.64-2.22z" id="svg_63" class="selected" fill-opacity="1" fill="#f2f2f2"/><polygon points="240.3 365.03 234.44 365.38 231.22 370.25 223.23 373.66 219.83 393.47 228.91 397.25 241.32 372.56" id="svg_64" class="selected" fill-opacity="1" fill="#f2f2f2"/><polygon points="128.15 223.44 130.68 222.06 130.31 219.81 124.47 220.44 124.47 222.06" id="svg_65" class="selected" fill-opacity="1" fill="#f2f2f2"/><path d="m52.649 168.47l6.701-2.5c3.829-3.469-0.556-4.812-0.556-4.812l3.489-4.938c1.822-1.656-2.748-4.531-2.748-4.531l-4.57 3.438-4.354-0.281c-2.903 0-1.451 6.312-1.451 6.312l-0.216 5.25 3.705 2.06z" id="svg_66" class="selected" fill-opacity="1" fill="#f2f2f2"/><polygon points="64.26 144.94 62.808 147.97 65.371 148.53 65.711 156.66 71.547 158 67.039 163.59 71.485 165.03 71.146 169.19 67.348 170.91 66.267 176.16 83.744 172.41 86.647 169.84 84.64 167.31 87.018 162.19 72.813 146.31 72.813 140.91 69.88 138.19 71.732 135.34 66.452 135.34 65.526 139.25 61.357 140.91 61.542 143.75" id="svg_67" class="selected" fill-opacity="1" fill="#f2f2f2"/><polygon points="26.217 107 38.414 93.969 29.335 88.688 16.212 90.781 15.501 93.344 9.665 93.656 6.207 89.594 0 93.656 4.941 96.188 14.946 106" id="svg_68" class="selected" fill-opacity="1" fill="#f2f2f2"/><path d="m681.2 87.344l-4.2 4.656-4.354-8.406-37.487-18.156-3.489 9.906-11.611-5.094-19.114 2.094-6.546-7.188s1.452-6.625-7.658-5.281l-11.642 1.5-13.124-7.469-0.71-6.031-13.834 1.656v-3.906l-12.722-3.281-9.665 13.812-18.373 2.219-12.383-11.531 2.192-9.156-14.019-6.312-2.563 10.656-30.57-6.75-31.86 13.218-0.927-14.312 13.525-4.5 2.841-9.188s2.377-10.75-8.554-8.844l-13.648 1.812 1.915-7.562s-4.076-7.906-24.364 4.5l-45.948 27.875 11.116 31.188-23.499-20.25-12.197 2.406 1.297 18.625 11.456-2.406 7.43 24.156-9.449 2.25s3.304-14.25 0.927-17.094l-1.637-4.344-6.207 2.531 1.822 3.75s-10.715 11.625-11.827 11.844c-1.081 0.219-4.724-4.812-4.724-4.812s11.641-7.188 6.361-15.594l-6.361-31.188-10.931 13.812 7.102 21-20.905-7.969-7.843 11.094-32.207 0.156-6.361 8.125-8.399-5.125-16.91 18.158-7.442-1.375-2.656 6.625-15.19-18.278 7.288 1.469 4.91 4.5s9.387-1.375 14.39-3.594c0 0 3.984-3.438 0.34-6.594l-15.44-11.094-18.713-2.594v-6.281l-6.793-3.875s-29.49 13.594-33.658 15.75l-25.105 35.344-4.632 1.344-8.739 13.5 1.081 10.125s-0.371 4.719 2.748 5.625c3.088 0.906 13.34-6.094 13.34-6.094l4.385 0.688 4.385 14.188 6.547-1.125 1.636-6.531 8.986-11.25-3.29-13.06 15.563-21.812 9.85 2.688-15.563 14.844s1.328 9.438 1.359 12.156c0 0 3.52 3.906 5.188 5.188 1.081 0.812 14.328-1.625 17.2-2.938 0 0 2.903 1.438 2.717 2.469-0.185 1.062-7.38 4.5-7.38 4.5s-3.52-1.844-5.527-1.406-6.269 4.406-6.269 4.406-0.803 5.188-5.095 6.625l-7.751 11.844-12.938 4.094-7.627-4.406-3.088 1.812-6.021-4.219 0.247-4.094 1.76-1.281-2.1-3.031-3.922 2.406-0.155 5.25 1.822 3.625s-1.235 4.094-4.755 3c-2.439-0.812-5.991 2.531-5.991 2.531l-13.309 16.844-9.264-0.5-2.007 6-4.169 0.938 3.52 15.719-16.458-0.125-9.696 6.781 2.254 17.219 24.178-1.062 14.946-15.75 19.824-9 5.281 2.094 12.197 12.906 3.983 2.25 0.401 4.5 3.273-2.25 1.606-4.188-6.176-5.125-1.451-3.125s-4.91-1.656-6.917-4.375l-2.347-5.688s2.903-2.875 4.91 0.125l17.262 11.438-1.266 2.406 6.917 10.781 6.176-1.344 0.741-6 8.739 0.438 8.739-5.406-2.378-4.781 9.665-12.469 9.079 2.25-0.741 3 5.126 3.281 3.767-3.812-1.606-3.062 9.48 0.156-0.741 4.5 11.271 10.656-16.181 2.406-5.651-3.312-26.803 10.25s0.371 5.031 1.42 7l4.292 4.156 9.078-2.5 14.39 2.562 0.556 5.531-16.026 11.719-15.687-4.156-14.544-0.75-6.176 5.938-23.468-10.188-8.183-12.156-15.656 0.75-21.461 4.938-12.63-0.219-11.055 7.875-3.983 12.75-19.485 15.469-1.698 33.906 15.903 15.438 13.648 7.656 24.209-0.594 11.827-5.688 17.478 7.031 1.451 17.406 9.634 8.844v18.594l-0.185 16.688 8.739 26.219 7.287 10.062 0.896 11.094 13.494 1.219 18.003-7.969 16.922-16.938 7.998-23.875 16.397-16.5-3.829-22.875 29.675-27.219 7.998-13.656-20.473 0.094-15.748-14.812-18.188-31.938-1.482-4.656 5.836 3 0.556-1.938s4.91 2.219 2.532 3.906l28.811 40.125 15.625-4.125 18.373-9.469s6.732-3.719 7.627-10.031l2.748-3.031-7.287-7.031-0.71-3.312s-11.302 7.688-16.767 3.469l-11.086-11.844v-5.406s5.991-0.75 8.893 1.938l12.753 9.75 3.088-1.938s6.021-0.156 5.836 3.75l10.53 3.156 20.751 1.344 12.383 11.406 4.385-1.5 3.613 14.375 6.577 7.844 6.176 11.812 3.273 1.656 4.199-7.344-0.37-4.781 9.109-10.219s1.791-6.719 8.708-7.344l18.033-10.656 11.456 10.062 5.528 9.75 3.952-2.125s7.411 10.094 4.54 19.375l-0.556 3 4.015 3.438 1.266-0.75 2.903 8.875 8.739 6.75-2.748-11.406-4.508-3.312-5.095-7.344 0.154-9 8.77 1.625s9.789 5.281 8.893 9.938c0 0 3.644-1.062 4.354-3.188l4.57-2.844s7.998-2.531 3.273-10.938l-6.361-8.406s-3.304-5.656 3.458-9.125l25.105-5.875s18.188-13.938 17.632-17.688l-3.798-22.219 7.627-5.406-13.648-3.594 12.938-6.156-0.556 2.844 8.369 0.312 1.451 1.812-1.44 2.93 6.207 2.125-1.112 2.25 1.266 2.094 0.186 3.594 2.748 0.75s2.748-2.688 3.458-2.844 2.223-3 2.223-3l-0.525-2.562h-1.112s0.68-3.438-4.261-4.344l-1.637-1.5 0.927-3 5.28-1.938 4.725-6.312 11.456-2.875 14.575-12.281-0.741-2.25 11.302-15.156-2.749-14.25-12.166-2.406-6.917-3.281 23.283-19.5 43.879 3.594 1.235-2.562-3.798-2.406 12.012-9.594 5.28 3.469 8.183-5.125-2.532 8.719-17.292 16.344s2.532 3.438-2.007 7.5l1.266 11.25 4.54 5.719 7.473-12.312s1.266-3.469 3.644-3.156l5.095-13.188s1.112-3.312-1.451-4.531l4.91-8.094 20.195-0.875s18.929-13.531 19.485-15.906c0 0 5.404-1.031 7.627-0.75 0 0-2.409-5.312-4.169-10.062l8.523-2.844 6.021-8.406 16.582 15.469 2.872-3.938 2.378-11.375-7.45-3.901zm-496.3 41.096l-4.354-1.625-1.636-4.344 5.805-2.281 3.829 3.469-3.65 4.77zm8.93-4.32l-2.748-6.188 4.941 0.469 0.71 4.188-2.9 1.53zm58.95 93s1.297 5.094-2.903 5.688l-6.732 0.625s-4.539 0.406-4.725-5.406l2.378-6.625s-4.724-3.281-5.095-7.344l-1.266-3.156-4.755-4.781 9.449-5.125 6.021-3.438 5.095 2.844 0.741 4.656-5.095 2.25s-3.304 1.5 0.34 3.75l4.755 6.438-0.556 3.906c0.01 0 3.62 4.81 2.36 5.71zm22.23-18.31s0.154 5.656-3.767 1.875l-2.964-3.219s0.124-2.531 1.081-4.5l3.644-1.969s3.644-1.344 3.644 0.438c0 0-0.772 2.125 0.154 3.344 0.01 0.01-0.14 2.85-1.78 4.04zm157.76-43.09l-0.278 4.219-2.996 0.719-1.637 1.156-1.081 1.875-1.915 1.188-6.269 1.875-1.636-0.938 7.627-5.625 2.717 0.219v-1.42l0.834-2.125 5.188-3.969-0.55 2.81z" id="svg_69" class="selected" fill-opacity="1" fill="#f2f2f2"/></g></svg>